<svg width="24" height="16" viewBox="0 0 24 16" fill="none" xmlns="http://www.w3.org/2000/svg">
<path d="M2.8418 5.09668H5.14453V3.88379C5.14453 3.03125 5.61035 2.57422 6.47168 2.57422H9.72363C10.585 2.57422 11.0508 3.03125 11.0508 3.88379V5.09668H13.0283V3.88379C13.0283 3.03125 13.4941 2.57422 14.3906 2.57422H17.4756C18.3809 2.57422 18.8467 3.03125 18.8467 3.88379V5.09668H21.1494V2.57422C21.1494 0.904297 20.2529 0.0341797 18.6182 0.0341797H5.37305C3.73828 0.0341797 2.8418 0.904297 2.8418 2.57422V5.09668ZM0.670898 14.4922C0.670898 14.9668 0.978516 15.2656 1.44434 15.2656H1.98926C2.45508 15.2656 2.7627 14.9668 2.7627 14.4922V13.2266C2.86816 13.2529 3.17578 13.2705 3.39551 13.2705H20.5957C20.8154 13.2705 21.123 13.2529 21.2285 13.2266V14.4922C21.2285 14.9668 21.5361 15.2656 22.002 15.2656H22.5469C23.0127 15.2656 23.3203 14.9668 23.3203 14.4922V9.14844C23.3203 7.39941 22.3535 6.44141 20.5957 6.44141H3.39551C1.6377 6.44141 0.670898 7.39941 0.670898 9.14844V14.4922Z" fill="#1C1C1E"/>
</svg>
