<svg width="20" height="23" viewBox="0 0 20 23" fill="none"
    xmlns="http://www.w3.org/2000/svg">
    <path d="M0 20.8438C0 22.0342 0.959821 23 2.14286 23H17.8571C19.0402 23 20 22.0342 20 20.8438V8.625H0V20.8438ZM14.2857 12.0391C14.2857 11.7426 14.5268 11.5 14.8214 11.5H16.6071C16.9018 11.5 17.1429 11.7426 17.1429 12.0391V13.8359C17.1429 14.1324 16.9018 14.375 16.6071 14.375H14.8214C14.5268 14.375 14.2857 14.1324 14.2857 13.8359V12.0391ZM14.2857 17.7891C14.2857 17.4926 14.5268 17.25 14.8214 17.25H16.6071C16.9018 17.25 17.1429 17.4926 17.1429 17.7891V19.5859C17.1429 19.8824 16.9018 20.125 16.6071 20.125H14.8214C14.5268 20.125 14.2857 19.8824 14.2857 19.5859V17.7891ZM8.57143 12.0391C8.57143 11.7426 8.8125 11.5 9.10714 11.5H10.8929C11.1875 11.5 11.4286 11.7426 11.4286 12.0391V13.8359C11.4286 14.1324 11.1875 14.375 10.8929 14.375H9.10714C8.8125 14.375 8.57143 14.1324 8.57143 13.8359V12.0391ZM8.57143 17.7891C8.57143 17.4926 8.8125 17.25 9.10714 17.25H10.8929C11.1875 17.25 11.4286 17.4926 11.4286 17.7891V19.5859C11.4286 19.8824 11.1875 20.125 10.8929 20.125H9.10714C8.8125 20.125 8.57143 19.8824 8.57143 19.5859V17.7891ZM2.85714 12.0391C2.85714 11.7426 3.09821 11.5 3.39286 11.5H5.17857C5.47321 11.5 5.71429 11.7426 5.71429 12.0391V13.8359C5.71429 14.1324 5.47321 14.375 5.17857 14.375H3.39286C3.09821 14.375 2.85714 14.1324 2.85714 13.8359V12.0391ZM2.85714 17.7891C2.85714 17.4926 3.09821 17.25 3.39286 17.25H5.17857C5.47321 17.25 5.71429 17.4926 5.71429 17.7891V19.5859C5.71429 19.8824 5.47321 20.125 5.17857 20.125H3.39286C3.09821 20.125 2.85714 19.8824 2.85714 19.5859V17.7891ZM17.8571 2.875H15.7143V0.71875C15.7143 0.323437 15.3929 0 15 0H13.5714C13.1786 0 12.8571 0.323437 12.8571 0.71875V2.875H7.14286V0.71875C7.14286 0.323437 6.82143 0 6.42857 0H5C4.60714 0 4.28571 0.323437 4.28571 0.71875V2.875H2.14286C0.959821 2.875 0 3.84082 0 5.03125V7.1875H20V5.03125C20 3.84082 19.0402 2.875 17.8571 2.875Z" fill="currentColor"/>
</svg>
