<svg width="20" height="19" viewBox="0 0 20 19" fill="currentColor"
    xmlns="http://www.w3.org/2000/svg">
    <path d="M9.99121 18.7422C14.9746 18.7422 19.0879 14.6289 19.0879 9.6543C19.0879 4.67969 14.9658 0.566406 9.98242 0.566406C5.00781 0.566406 0.90332 4.67969 0.90332 9.6543C0.90332 14.6289 5.0166 18.7422 9.99121 18.7422ZM10.9756 12.5459C10.3779 13.1787 9.61328 13.1787 9.01562 12.5459L5.52637 8.82812C5.21875 8.50293 5.20996 8.01953 5.49121 7.72949C5.81641 7.4043 6.31738 7.4043 6.61621 7.7207L10 11.3154L13.3838 7.7207C13.6738 7.4043 14.166 7.41309 14.5 7.72949C14.79 8.01074 14.7812 8.50293 14.4648 8.82812L10.9756 12.5459Z" fill="#currentColor"/>
</svg>
