<svg width="20" height="19" viewBox="0 0 20 19" fill="none" xmlns="http://www.w3.org/2000/svg">
<path d="M1.87012 15.7871H3.02148C3.28516 15.7871 3.39062 15.7344 3.58398 15.5849L4.17285 15.1367C4.49805 15.4619 4.98145 15.5322 5.46484 15.3213L8.37402 14.1084C8.59375 14.0205 8.70801 13.9326 8.84863 13.792L17.3389 5.36326C18.1826 4.51951 18.1826 3.50877 17.3301 2.64744L15.4229 0.731423C14.5703 -0.121116 13.5596 -0.129905 12.7158 0.713845L4.22559 9.13377C4.07617 9.28318 3.99707 9.38865 3.90039 9.61716L2.66992 12.5176C2.46777 12.9834 2.52051 13.4404 2.8457 13.8008L1.58008 15.1103C1.30762 15.4004 1.43945 15.7871 1.87012 15.7871ZM13.6914 1.874C13.9199 1.65427 14.1924 1.64549 14.4033 1.86521L16.1963 3.66697C16.416 3.8867 16.4072 4.15037 16.1699 4.37888L15.5986 4.95017L13.1113 2.45408L13.6914 1.874ZM5.78125 9.74021L12.1621 3.4033L14.6406 5.89939L8.26855 12.2363L5.78125 9.74021ZM5.28906 13.7656C5.12207 13.8271 5.00781 13.8271 4.8584 13.6777L4.30469 13.1328C4.16406 12.9922 4.16406 12.8603 4.22559 12.7109L5.0166 10.874L7.12598 13.001L5.28906 13.7656ZM1.57129 18.9072H18.4375C18.8594 18.9072 19.2021 18.5469 19.2021 18.125C19.2021 17.7031 18.8594 17.3515 18.4375 17.3515H1.57129C1.14062 17.3515 0.797852 17.7031 0.797852 18.125C0.797852 18.5469 1.14941 18.9072 1.57129 18.9072Z" fill="#1C1C1E"/>
</svg>
