<svg width="20" height="19" viewBox="0 0 20 19" fill="none" xmlns="http://www.w3.org/2000/svg">
<path d="M9.99121 18.7422C14.9746 18.7422 19.0879 14.6289 19.0879 9.6543C19.0879 4.67969 14.9658 0.566406 9.98242 0.566406C5.00781 0.566406 0.90332 4.67969 0.90332 9.6543C0.90332 14.6289 5.0166 18.7422 9.99121 18.7422ZM4.31348 8.97754C4.31348 8.83691 4.375 8.69629 4.49805 8.59082L9.29688 4.57422C9.71875 4.21387 10.2812 4.21387 10.7031 4.57422L12.8564 6.37598V5.59375C12.8564 5.38281 13.0059 5.25098 13.208 5.25098H13.8232C14.0342 5.25098 14.166 5.38281 14.166 5.59375V7.4834L15.4932 8.59082C15.6074 8.69629 15.6689 8.82812 15.6689 8.98633C15.6689 9.25879 15.458 9.44336 15.1855 9.44336C15.0361 9.44336 14.9131 9.35547 14.7812 9.25879L10.2285 5.43555C10.0791 5.3125 9.9209 5.30371 9.7627 5.43555L5.20117 9.25879C5.08691 9.35547 4.95508 9.44336 4.80566 9.44336C4.49805 9.44336 4.31348 9.22363 4.31348 8.97754ZM5.83398 13.1436V9.61035L9.70117 6.3584C9.88574 6.20898 10.0967 6.2002 10.2812 6.3584L14.1572 9.61035V13.1436C14.1572 13.8027 13.7354 14.207 13.0498 14.207H6.93262C6.24707 14.207 5.83398 13.8027 5.83398 13.1436ZM8.77832 13.2402H11.2041V10.3574C11.2041 10.1377 11.0811 9.99707 10.8438 9.99707H9.13867C8.91895 9.99707 8.77832 10.1377 8.77832 10.3574V13.2402Z" fill="#1C1C1E"/>
</svg>
