<svg width="28" height="13" viewBox="0 0 28 13" fill="none" xmlns="http://www.w3.org/2000/svg">
<path d="M6.26855 6.00293C7.76562 6.00293 9.02344 4.67676 9.02344 2.96094C9.02344 1.28613 7.75195 0.0078125 6.26855 0.0078125C4.78516 0.0078125 3.50684 1.30664 3.51367 2.97461C3.51367 4.67676 4.77832 6.00293 6.26855 6.00293ZM14.0068 6.00293C15.4971 6.00293 16.7617 4.67676 16.7617 2.96094C16.7617 1.28613 15.4902 0.0078125 14.0068 0.0078125C12.5166 0.0078125 11.2451 1.30664 11.252 2.97461C11.252 4.67676 12.5098 6.00293 14.0068 6.00293ZM21.7314 6.00293C23.2217 6.00293 24.4863 4.67676 24.4863 2.96094C24.4863 1.28613 23.2148 0.0078125 21.7314 0.0078125C20.248 0.0078125 18.9697 1.30664 18.9766 2.97461C18.9766 4.67676 20.2412 6.00293 21.7314 6.00293ZM2.00293 12.3604H10.5273C11.6553 12.3604 12.0449 12.0186 12.0449 11.3965C12.0449 9.63281 9.80957 7.21289 6.26855 7.21289C2.7207 7.21289 0.492188 9.63281 0.492188 11.3965C0.492188 12.0186 0.881836 12.3604 2.00293 12.3604ZM14 7.21289C12.8584 7.21289 11.8535 7.47266 11.0195 7.87598C12.2158 8.8125 12.9814 10.0635 12.9814 11.3965C12.9814 11.7725 12.8994 12.0938 12.7354 12.3604H18.2656C19.3867 12.3604 19.7764 12.0186 19.7764 11.3965C19.7764 9.63281 17.5479 7.21289 14 7.21289ZM21.7314 7.21289C20.5898 7.21289 19.585 7.47266 18.751 7.87598C19.9473 8.80566 20.7129 10.0635 20.7129 11.3965C20.7129 11.7725 20.6309 12.0938 20.4736 12.3604H25.9902C27.1113 12.3604 27.501 12.0186 27.501 11.3965C27.501 9.63281 25.2725 7.21289 21.7314 7.21289Z" fill="#1C1C1E"/>
</svg>
