<svg width="16" height="16" viewBox="0 0 16 16" fill="none" xmlns="http://www.w3.org/2000/svg">
<path d="M1.63672 8.65625H6.99805V14.0176C6.99805 14.5625 7.44629 15.0195 8 15.0195C8.55371 15.0195 9.00195 14.5625 9.00195 14.0176V8.65625H14.3633C14.9082 8.65625 15.3652 8.20801 15.3652 7.6543C15.3652 7.10059 14.9082 6.65234 14.3633 6.65234H9.00195V1.29102C9.00195 0.746094 8.55371 0.289062 8 0.289062C7.44629 0.289062 6.99805 0.746094 6.99805 1.29102V6.65234H1.63672C1.0918 6.65234 0.634766 7.10059 0.634766 7.6543C0.634766 8.20801 1.0918 8.65625 1.63672 8.65625Z" fill="#1C1C1E"/>
</svg>
