<svg width="26" height="25" viewBox="0 0 26 25" fill="currentColor"
    xmlns="http://www.w3.org/2000/svg">
    <path d="M24.4189 24.9868H0.567881C0.254411 24.9868 0 24.7323 0 24.4189V0.567881C0 0.254411 0.254411 0 0.567881 0C0.881351 0 1.13576 0.254411 1.13576 0.567881V23.851H24.4189C24.7323 23.851 24.9868 24.1054 24.9868 24.4189C24.9868 24.7323 24.7323 24.9868 24.4189 24.9868Z"/>
    <path d="M0.888128 14.8876L0.247559 13.9472L12.1844 5.83329C12.4615 5.64476 12.8204 5.62204 13.1203 5.7765L17.3976 7.97988L22.111 2.84851L22.9469 3.61629L18.1199 8.87259C17.8405 9.17697 17.3907 9.25648 17.025 9.06794L12.716 6.84866L0.888128 14.8876Z"/>
    <path d="M25.4865 0.488422L23.5921 5.59935C23.4762 5.91055 23.031 5.89919 22.9334 5.58118L22.345 3.69127C22.3087 3.57088 22.2087 3.48229 22.0883 3.45503L20.1553 3.03026C19.8305 2.95984 19.7805 2.51689 20.0826 2.37606L25.0141 0.0545606C25.2935 -0.0794592 25.5933 0.195395 25.4865 0.488422Z"/>
    <path d="M3.66626 15.3646V21.9407H6.86002V13.1931L3.66626 15.3646Z"/>
    <path d="M8.51135 12.0709V21.9407H11.7051V9.89935L8.51135 12.0709Z"/>
    <path d="M13.3566 9.50409V21.9407H16.5503V11.1509L13.3566 9.50409Z"/>
    <path d="M18.204 11.269V21.9406H21.3977V7.79132L18.204 11.269Z"/>
</svg>
