<svg width="16" height="15" viewBox="0 0 16 15" fill="none"
    xmlns="http://www.w3.org/2000/svg">
    <path d="M1.18836 13.0508C0.819223 13.4199 0.801645 14.0791 1.19715 14.4658C1.58387 14.8525 2.24305 14.8438 2.61219 14.4746L7.9911 9.08692L13.3788 14.4746C13.7567 14.8525 14.4071 14.8525 14.7938 14.4658C15.1718 14.0703 15.1806 13.4287 14.7938 13.0508L9.41493 7.6631L14.7938 2.28419C15.1806 1.90626 15.1806 1.25587 14.7938 0.86915C14.3983 0.49122 13.7567 0.482431 13.3788 0.860361L7.9911 6.24806L2.61219 0.860361C2.24305 0.49122 1.57508 0.473642 1.19715 0.86915C0.810434 1.25587 0.819223 1.91505 1.18836 2.28419L6.57606 7.6631L1.18836 13.0508Z" fill="currentColor"/>
</svg>
